<svg height="512pt" viewBox="-48 0 512 512" width="512pt" xmlns="http://www.w3.org/2000/svg"><path d="m416.542969 155.464844v339.179687c0 9.585938-7.769531 17.355469-17.355469 17.355469h-381.832031c-9.585938 0-17.355469-7.769531-17.355469-17.355469v-339.179687c-.00390625-1.757813 1.054688-3.34375 2.675781-4.015625 1.625-.671875 3.492188-.300781 4.734375.945312l24.238282 28.566407c1.695312 1.695312 4.441406 1.695312 6.136718 0l28.574219-28.574219c1.695313-1.695313 4.441406-1.695313 6.136719 0l28.578125 28.574219c1.691406 1.695312 4.4375 1.695312 6.132812 0l28.578125-28.574219c1.691406-1.695313 4.441406-1.695313 6.132813 0l28.578125 28.574219c1.695312 1.695312 4.441406 1.695312 6.136718 0l28.574219-28.574219c1.695313-1.695313 4.441407-1.695313 6.136719 0l28.574219 28.574219c1.695312 1.695312 4.441406 1.695312 6.136719 0l28.578124-28.574219c1.691407-1.695313 4.441407-1.695313 6.132813 0l28.578125 28.574219c1.695312 1.695312 4.441406 1.695312 6.136719 0l28.574219-28.574219c1.695312-1.695313 4.441406-1.695313 6.136718 0l28.574219 28.574219c1.695313 1.695312 4.441406 1.695312 6.136719 0l24.238281-28.566407c1.242187-1.238281 3.105469-1.609375 4.726563-.933593 1.617187.671874 2.675781 2.25 2.675781 4.003906zm0 0" fill="#f0c419"/><path d="m416.542969 155.507812v339.136719c-.027344 9.574219-7.78125 17.328125-17.355469 17.355469h-190.917969v-360.828125c1.140625-.050781 2.246094.394531 3.039063 1.214844l28.636718 28.550781c.792969.832031 1.890626 1.300781 3.039063 1.300781s2.246094-.46875 3.035156-1.300781l28.636719-28.550781c1.6875-1.65625 4.390625-1.65625 6.074219 0l28.640625 28.550781c.789062.832031 1.886718 1.300781 3.035156 1.300781s2.246094-.46875 3.039062-1.300781l28.636719-28.550781c1.6875-1.65625 4.386719-1.65625 6.074219 0l28.636719 28.550781c.792969.832031 1.890625 1.300781 3.039062 1.300781 1.148438 0 2.246094-.46875 3.035157-1.300781l24.300781-28.550781c1.25-1.226563 3.113281-1.582031 4.726562-.898438 1.613281.683594 2.65625 2.269531 2.648438 4.019531zm0 0" fill="#f3d55b"/><path d="m312.40625 242.984375c-4.792969 0-8.675781-3.886719-8.675781-8.679687v-121.492188c0-52.71875-42.738281-95.457031-95.460938-95.457031-52.71875 0-95.457031 42.738281-95.457031 95.457031v121.492188c0 4.792968-3.882812 8.679687-8.675781 8.679687s-8.679688-3.886719-8.679688-8.679687v-121.492188c0-62.304688 50.507813-112.8125 112.8125-112.8125 62.308594 0 112.816407 50.507812 112.816407 112.8125v121.492188c0 4.792968-3.886719 8.679687-8.679688 8.679687zm0 0" fill="#b19046"/><path d="m121.492188 251.660156c0 9.585938-7.769532 17.355469-17.355469 17.355469-9.585938 0-17.355469-7.769531-17.355469-17.355469 0-9.585937 7.769531-17.355468 17.355469-17.355468 9.585937 0 17.355469 7.769531 17.355469 17.355468zm0 0" fill="#7f5b53"/><path d="m329.761719 251.660156c0 9.585938-7.769531 17.355469-17.355469 17.355469s-17.355469-7.769531-17.355469-17.355469c0-9.585937 7.769531-17.355468 17.355469-17.355468s17.355469 7.769531 17.355469 17.355468zm0 0" fill="#7f5b53"/><g fill="#f29c1f"><path d="m121.492188 485.964844h-86.78125c-4.792969 0-8.675782-3.882813-8.675782-8.675782 0-4.792968 3.882813-8.679687 8.675782-8.679687h86.78125c4.792968 0 8.675781 3.886719 8.675781 8.679687 0 4.792969-3.882813 8.675782-8.675781 8.675782zm0 0"/><path d="m164.882812 485.964844h-8.679687c-4.792969 0-8.675781-3.882813-8.675781-8.675782 0-4.792968 3.882812-8.679687 8.675781-8.679687h8.679687c4.792969 0 8.675782 3.886719 8.675782 8.679687 0 4.792969-3.882813 8.675782-8.675782 8.675782zm0 0"/></g></svg>