<svg id="Layer_1" data-name="Layer 1" xmlns="http://www.w3.org/2000/svg" viewBox="0 0 434.25 490.18"><defs><style>.cls-1{fill:#f0c319;}</style></defs><title>icon-chart-ipbstore</title><path class="cls-1" d="M466.68,447.47c-.33-4.92-1-9.82-1.3-14.75q-2.37-45.5-4.62-91c-1.41-28-3-56-4.22-84-1.84-41.71-4-83.4-4.68-125.15a71.14,71.14,0,0,0-3-19c-6.51-22.23-23.45-34-46.46-31.95-10.25.94-20.48.35-30.71.79-2.85.12-4-.94-5-3.43-12.81-30.15-33.78-52.2-64.71-64-24.72-9.4-50.33-10.73-76.24-6.89C180.91,14.82,149,38.59,131,80.44c-.87,2-1.83,2.74-4,2.66-11-.39-22-.5-32.88,1.47-28.49,5.12-49.22,24.18-49.18,55,0,27.27-2,54.54-3.12,81.8-1.36,31.71-2.84,63.41-4.19,95.12C36,352,34.44,387.52,33.22,423.06c-.31,9.11-1.24,18.22-.21,27.39,2.65,23.46,27.73,45.92,51.32,45.89q83.22-.09,166.42,0c52.64-.86,105.27-1.27,157.9-.7A89.17,89.17,0,0,0,432.51,493C455.09,487,468.17,469.65,466.68,447.47ZM187.85,59.26c13.89-10.94,30-16.2,47.37-18,19.22-2,38.18-1,56.36,6.33,17.12,6.88,29.83,18.71,39.35,35.62H167.55A77,77,0,0,1,187.85,59.26ZM161.56,187.59c15.45-1,30.81-1.32,46,2.64,20.34,5.3,36.88,16.14,49.3,33.17.28.39.59.76,1.11,1.43a86.73,86.73,0,0,1,20-20.7c17.34-12.61,37.09-17.25,58.12-17.66,5.68-.12,11.36,0,17-.11,1.76,0,2.71.2,2.61,2.38-1.19,25.87-5.24,51-18.51,73.84-9.51,16.34-22.71,28.13-41.77,32.17a58.82,58.82,0,0,1-9.91,1.19c-2.07.08-3-.19-3-2.7.17-9.64.08-19.28.06-28.91,0-1.39-.22-2.59,1.95-2.6,8,0,14.07-4.11,18.91-10.1,6.64-8.2,10.26-17.84,13.26-28.55-20,5.35-31.83,18.13-38.08,36.63a66.42,66.42,0,0,0-3.34,22.93c.23,10.87,0,21.74.18,32.61,0,2.22-.44,3-2.81,2.93q-14.46-.21-28.91,0c-2.54,0-3-.83-3-3.14.08-12.72.63-25.49-.16-38.16-1.43-23.27-13.91-45.14-37.61-52.42-1.13-.35-2.27-.65-3.9-1.12,3.25,11.2,7.14,21.61,14.84,30.11,4.63,5.12,10.27,8.5,17.47,8.28,1.83-.05,1.93.8,1.94,2.21,0,9.89.06,19.77.3,29.65.06,2.47-1.1,2.46-2.89,2.41-20-.62-35.34-9.86-47-25.59-11-14.87-16.66-32-20.23-49.94-2-10-2.57-20-3.57-30.1C159.83,189.23,159.14,187.75,161.56,187.59Zm-14,215.49c-18.93,3.65-38.15-12.8-40-26.71-1-7.78.87-14.91,3.94-21.88,2.48-5.63,5.46-11,8.46-16.38.89-1.58,1.56-2.08,3.32-1.07q12.58,7.26,25.33,14.25c2,1.1,2.21,1.93,1,3.87a74.37,74.37,0,0,0-7.21,14.13c6.77-1.31,12.46-4.4,17.81-8,2.79-1.86,4.82-1.75,7.62-.17,9.52,5.4,19.19,10.51,29.36,16C181.76,388.57,166.64,399.41,147.57,403.08Zm250.05-19.54c-7.18,4.28-15.14,5.85-23.3,6.47-22.5,1.7-44.61-1.5-66.57-5.84a615.24,615.24,0,0,1-164.54-57.36,177.31,177.31,0,0,1-33-21.69c-6.46-5.45-12.28-11.46-15.82-19.31-5.85-13-1.69-26.27,10.44-33.67,6.82-4.17,14.41-5.74,22.17-6.55a137.23,137.23,0,0,1,19.86-.44c1.94,6.73,7.24,23.62,14.55,35.29a7.06,7.06,0,0,1-1.09,0,203.16,203.16,0,0,0-21.07-1.31c-1.91,0-3.89-.26-6.05.69a147,147,0,0,0,21.92,14.63c31.73,17.81,65.56,30.59,100.18,41.38a505,505,0,0,0,79.15,18.32,189.08,189.08,0,0,0,31.71,2.25c1,0,2.19.22,3.31-.75-8-6.72-16.94-11.94-26-16.87-5.3-2.88-31.5-16.45-36.92-19.11l-.59-.31c7.26-1.46,22.47-5.81,39.06-18.21,17.31,8.58,34.2,17.82,49,30.46,5.56,4.76,10.44,10.15,13.8,16.77C414.55,361.73,410.48,375.86,397.62,383.54Z" transform="translate(-32.54 -6.16)"/></svg>