<?xml version="1.0" encoding="utf-8"?>
<!-- Generator: Adobe Illustrator 22.1.0, SVG Export Plug-In . SVG Version: 6.00 Build 0)  -->
<svg version="1.1" id="Layer_1" xmlns="http://www.w3.org/2000/svg" xmlns:xlink="http://www.w3.org/1999/xlink" x="0px" y="0px"
	 viewBox="0 0 512 512" style="enable-background:new 0 0 512 512;" xml:space="preserve">
<style type="text/css">
	.st0{fill:url(#SVGID_1_);}
</style>
<linearGradient id="SVGID_1_" gradientUnits="userSpaceOnUse" x1="59.9274" y1="251.6602" x2="452.0726" y2="251.6602">
	<stop  offset="0" style="stop-color:#EA9600"/>
	<stop  offset="1" style="stop-color:#E8B356"/>
</linearGradient>
<path class="st0" d="M452,428.9c-0.3-4.4-0.9-8.9-1.2-13.3c-1.4-27.4-2.8-54.8-4.2-82.2c-1.3-25.3-2.7-50.6-3.8-75.8
	c-1.7-37.7-3.6-75.3-4.2-113c-0.1-5.8-1.1-11.5-2.7-17.1c-5.9-20.1-21.2-30.7-42-28.8c-9.3,0.8-18.5,0.3-27.7,0.7
	c-2.6,0.1-3.6-0.8-4.6-3.1c-11.6-27.2-30.5-47.1-58.4-57.8c-22.3-8.5-45.5-9.7-68.9-6.2c-40.4,6-69.3,27.5-85.6,65.3
	c-0.8,1.8-1.7,2.5-3.6,2.4c-9.9-0.4-19.8-0.4-29.7,1.3C89.7,105.8,71,123,71.1,150.8c0,24.6-1.8,49.2-2.8,73.9
	c-1.2,28.6-2.6,57.3-3.8,85.9c-1.4,32.1-2.8,64.2-3.9,96.3c-0.3,8.2-1.1,16.5-0.2,24.7c2.4,21.2,25,41.5,46.3,41.4
	c50.1-0.1,100.2,0,150.3,0c47.5-0.8,95.1-1.2,142.6-0.6c7.3,0.1,14.5-0.5,21.5-2.4C441.5,464.6,453.3,448.9,452,428.9z M200.2,78.3
	c12.5-9.9,27.1-14.6,42.8-16.2c17.4-1.8,34.5-0.9,50.9,5.7c15.5,6.2,26.9,16.9,35.5,32.2c-49.6,0-98.4,0-147.5,0
	C186.6,91.3,192.7,84.2,200.2,78.3z M176.4,194.2c14-0.9,27.8-1.2,41.5,2.4c18.4,4.8,33.3,14.6,44.5,30c0.3,0.3,0.5,0.7,1,1.3
	c5.1-7.3,11-13.6,18-18.7c15.7-11.4,33.5-15.6,52.5-15.9c5.1-0.1,10.3,0,15.4-0.1c1.6,0,2.4,0.2,2.4,2.1
	c-1.1,23.4-4.7,46.1-16.7,66.7c-8.6,14.8-20.5,25.4-37.7,29c-2.9,0.6-5.9,1-9,1.1c-1.9,0.1-2.7-0.2-2.7-2.4
	c0.2-8.7,0.1-17.4,0.1-26.1c0-1.3-0.2-2.3,1.8-2.3c7.3,0,12.7-3.7,17.1-9.1c6-7.4,9.3-16.1,12-25.8c-18,4.8-28.7,16.4-34.4,33.1
	c-2.3,6.7-3.2,13.6-3,20.7c0.2,9.8,0,19.6,0.2,29.5c0,2-0.4,2.7-2.5,2.6c-8.7-0.1-17.4-0.1-26.1,0c-2.3,0-2.7-0.7-2.7-2.8
	c0.1-11.5,0.6-23-0.1-34.5c-1.3-21-12.6-40.8-34-47.3c-1-0.3-2.1-0.6-3.5-1c2.9,10.1,6.4,19.5,13.4,27.2c4.2,4.6,9.3,7.7,15.8,7.5
	c1.6,0,1.7,0.7,1.7,2c0,8.9,0.1,17.9,0.3,26.8c0.1,2.2-1,2.2-2.6,2.2c-18-0.6-31.9-8.9-42.4-23.1c-9.9-13.4-15-28.9-18.3-45.1
	c-1.8-9-2.3-18.1-3.2-27.2C174.9,195.7,174.3,194.3,176.4,194.2z M163.8,388.8c-17.1,3.3-34.5-11.6-36.1-24.1
	c-0.9-7,0.8-13.5,3.6-19.8c2.2-5.1,4.9-9.9,7.6-14.8c0.8-1.4,1.4-1.9,3-1c7.6,4.4,15.2,8.7,22.9,12.9c1.8,1,2,1.7,0.9,3.5
	c-2.5,3.9-4.8,8-6.5,12.8c6.1-1.2,11.3-4,16.1-7.2c2.5-1.7,4.4-1.6,6.9-0.1c8.6,4.9,17.3,9.5,26.5,14.5
	C194.7,375.7,181,385.5,163.8,388.8z M389.6,371.1c-6.5,3.9-13.7,5.3-21,5.8c-20.3,1.5-40.3-1.4-60.1-5.3
	c-52-10.3-101.5-27.4-148.6-51.8c-10.6-5.5-20.7-11.9-29.8-19.6c-5.8-4.9-11.1-10.3-14.3-17.4c-5.3-11.8-1.5-23.7,9.4-30.4
	c6.2-3.8,13-5.2,20-5.9c6-0.6,12-0.7,17.9-0.4c1.8,6.1,6.5,21.3,13.1,31.9c-0.3,0-0.6,0-1,0c-6.3-0.7-12.7-1.1-19-1.2
	c-1.7,0-3.5-0.2-5.5,0.6c6.3,5.2,12.9,9.4,19.8,13.2c28.7,16.1,59.2,27.6,90.5,37.4c23.4,7.3,47.2,13.1,71.5,16.5
	c9.5,1.3,19,2.3,28.6,2c0.9,0,2,0.2,3-0.7c-7.3-6.1-15.3-10.8-23.5-15.2c-4.8-2.6-28.4-14.9-33.3-17.3c-0.2-0.1-0.4-0.2-0.5-0.3
	c6.6-1.3,20.3-5.3,35.3-16.4c15.6,7.7,30.9,16.1,44.2,27.5c5,4.3,9.4,9.2,12.5,15.1C404.9,351.4,401.2,364.2,389.6,371.1z"/>
</svg>
